<?xml version="1.0" encoding="UTF-8"?>
<svg version="1.1" xmlns="http://www.w3.org/2000/svg" width="256" height="256">
<path d="M0 0 C1.14404297 -0.01272446 2.28808594 -0.02544891 3.46679688 -0.03855896 C5.34334961 -0.02877014 5.34334961 -0.02877014 7.2578125 -0.01878357 C8.59180658 -0.02584269 9.92579266 -0.03458768 11.25976562 -0.04489136 C14.87964783 -0.06739522 18.49909303 -0.06444377 22.11901855 -0.05556989 C25.1410316 -0.05046065 28.16296246 -0.0577519 31.18496704 -0.06504196 C38.31348856 -0.08204372 45.44179603 -0.078472 52.5703125 -0.06175232 C59.92548177 -0.04482419 67.28005786 -0.06067385 74.63516235 -0.0929752 C80.95037225 -0.11965931 87.26539735 -0.12695055 93.58065796 -0.11846012 C97.35240851 -0.11352813 101.123802 -0.11576083 104.89550781 -0.13624763 C108.44162504 -0.15458717 111.98688785 -0.14866891 115.53295898 -0.12404823 C117.45492348 -0.11664358 119.3769333 -0.13390866 121.29882812 -0.15187073 C123.01489258 -0.13288979 123.01489258 -0.13288979 124.765625 -0.11352539 C126.25666748 -0.11264593 126.25666748 -0.11264593 127.77783203 -0.1117487 C130.3828125 0.5146637 130.3828125 0.5146637 132.73388672 2.80392551 C134.3828125 5.5146637 134.3828125 5.5146637 134.3828125 9.5146637 C135.2903125 9.5971637 136.1978125 9.6796637 137.1328125 9.7646637 C140.81848542 10.6152036 142.02476307 11.63260328 144.3828125 14.5146637 C146.62026923 18.98957715 145.69401029 25.4674561 145.73291016 30.43507385 C145.74943681 31.98112577 145.77668394 33.52710231 145.81494141 35.07276917 C145.86997407 37.30900953 145.89162345 39.54346054 145.90625 41.7802887 C145.92891937 42.46488159 145.95158875 43.14947449 145.97494507 43.85481262 C145.95050064 49.46217335 144.20336152 51.72185464 140.3828125 55.5146637 C138.43359375 56.3740387 138.43359375 56.3740387 136.3828125 56.5146637 C135.01189453 56.61521057 135.01189453 56.61521057 133.61328125 56.7177887 C127.40943665 56.81335498 122.78836867 56.68749014 117.3828125 53.5146637 C115.2308688 50.28674815 115.18194807 49.2306556 115.3828125 45.5146637 C114.3103125 45.4527887 113.2378125 45.3909137 112.1328125 45.3271637 C108.3828125 44.5146637 108.3828125 44.5146637 106.6953125 42.0146637 C104.1702809 39.28489981 103.76180762 39.13084472 100.2734375 38.80763245 C98.72730621 38.74816586 97.18004387 38.7137102 95.6328125 38.7021637 C94.84003906 38.67702698 94.04726562 38.65189026 93.23046875 38.62599182 C91.28178055 38.56729639 89.33224391 38.5380739 87.3828125 38.5146637 C87.41834229 39.62502991 87.45387207 40.73539612 87.49047852 41.87940979 C87.6206338 45.99042236 87.74386899 50.10161804 87.86499023 54.21290588 C87.9184327 55.99388827 87.97376379 57.77481501 88.03100586 59.55567932 C88.11285431 62.11219786 88.1879578 64.66883814 88.26171875 67.2256012 C88.30227135 68.42411209 88.30227135 68.42411209 88.34364319 69.64683533 C88.49668421 75.28692028 88.49668421 75.28692028 87.3828125 77.5146637 C88.0428125 77.1846637 88.7028125 76.8546637 89.3828125 76.5146637 C91.44319927 76.41275267 93.50692996 76.37624002 95.56982422 76.36940002 C96.87233124 76.36302017 98.17483826 76.35664032 99.51681519 76.35006714 C100.94870975 76.3485371 102.38060481 76.34742387 103.8125 76.34669495 C105.28305087 76.34348006 106.75360141 76.34011582 108.22415161 76.33660889 C111.31610859 76.3306105 114.40803761 76.32876935 117.5 76.32936096 C121.43131386 76.32946181 125.36244393 76.31589389 129.29371452 76.29858875 C132.33780714 76.28736966 135.38185701 76.28544488 138.42596817 76.28597069 C139.87300364 76.28480219 141.32004063 76.28044513 142.76705551 76.27263832 C166.84930962 76.15503294 166.84930962 76.15503294 174.91015625 82.92481995 C176.75625444 84.9178225 177.46812487 86.98168257 178.3828125 89.5146637 C179.1253125 89.8034137 179.8678125 90.0921637 180.6328125 90.3896637 C185.1667181 92.24444326 187.816155 96.11012709 190.44506836 100.14503479 C191.76794828 103.48788105 191.70779323 106.7365427 191.71875 110.2802887 C191.7254068 111.03251709 191.7320636 111.78474548 191.73892212 112.55976868 C191.74903075 114.15001489 191.75373969 115.74030336 191.75341797 117.33058167 C191.75777326 119.74293057 191.79405828 122.15342167 191.83203125 124.56544495 C191.94300027 139.24243311 191.94300027 139.24243311 187.3828125 145.5146637 C185.1640625 147.57325745 185.1640625 147.57325745 182.8828125 148.9521637 C181.75359375 149.6617926 181.75359375 149.6617926 180.6015625 150.38575745 C175.84984595 152.80344421 171.1781597 152.65174469 165.94238281 152.62818909 C164.6686657 152.62840813 164.6686657 152.62840813 163.36921692 152.62863159 C160.566431 152.62793571 157.76371179 152.62015845 154.9609375 152.61231995 C153.01609331 152.61045462 151.07124864 152.60903126 149.12640381 152.60803223 C144.01034241 152.60421611 138.89430945 152.59439353 133.77825928 152.58332825 C127.63835742 152.57129506 121.49844605 152.56670757 115.35853577 152.56087494 C106.03327491 152.55118132 96.70807643 152.53201841 87.3828125 152.5146637 C87.3828125 174.2946637 87.3828125 196.0746637 87.3828125 218.5146637 C89.0328125 218.8446637 90.6828125 219.1746637 92.3828125 219.5146637 C95.10119223 221.35927851 95.36361076 222.42563743 96.0703125 225.7021637 C96.1734375 226.6302887 96.2765625 227.5584137 96.3828125 228.5146637 C97.2903125 228.5971637 98.1978125 228.6796637 99.1328125 228.7646637 C103.02692072 229.66330406 104.06071241 230.27960118 106.3828125 233.5146637 C106.97626 236.69135325 106.94114678 239.79169477 106.8828125 243.0146637 C106.90601563 244.29663635 106.90601563 244.29663635 106.9296875 245.60450745 C106.92453125 246.43079651 106.919375 247.25708557 106.9140625 248.1084137 C106.90955078 248.85800354 106.90503906 249.60759338 106.90039062 250.37989807 C106.16373203 253.41826728 104.7872163 254.55176689 102.3828125 256.5146637 C99.72680664 257.01586914 99.72680664 257.01586914 96.66796875 257.01637268 C94.94598267 257.03044411 94.94598267 257.03044411 93.18920898 257.0447998 C91.33598022 257.02794884 91.33598022 257.02794884 89.4453125 257.01075745 C88.17308838 257.01221268 86.90086426 257.01366791 85.59008789 257.01516724 C82.89967878 257.01350687 80.21068242 257.00401513 77.52050781 256.98121643 C74.07702223 256.95283102 70.6344234 256.95557007 67.19087219 256.96830654 C63.90062867 256.97694448 60.61052828 256.96181388 57.3203125 256.94825745 C56.08482666 256.95119308 54.84934082 256.95412872 53.57641602 256.95715332 C52.42842529 256.94446915 51.28043457 256.93178497 50.09765625 256.91871643 C49.08823975 256.91331345 48.07882324 256.90791046 47.03881836 256.90234375 C43.956903 256.45249643 42.58404641 255.69540317 40.3828125 253.5146637 C39.6328125 250.3271637 39.6328125 250.3271637 39.3828125 247.5146637 C38.2896875 247.2465387 37.1965625 246.9784137 36.0703125 246.7021637 C31.19489304 245.13211336 31.19489304 245.13211336 29.3828125 242.5146637 C27.51300007 236.60448734 27.8897973 230.02455924 29.0703125 224.0146637 C30.3828125 221.5146637 30.3828125 221.5146637 35.3828125 218.5146637 C39.3428125 218.5146637 43.3028125 218.5146637 47.3828125 218.5146637 C47.3828125 196.7346637 47.3828125 174.9546637 47.3828125 152.5146637 C29.8928125 152.5146637 12.4028125 152.5146637 -5.6171875 152.5146637 C-5.6171875 154.4946637 -5.6171875 156.4746637 -5.6171875 158.5146637 C-4.225 158.8859137 -4.225 158.8859137 -2.8046875 159.2646637 C0.58838828 160.59528165 1.70232771 161.34041466 3.3828125 164.5146637 C3.3828125 165.8346637 3.3828125 167.1546637 3.3828125 168.5146637 C4.2903125 168.5971637 5.1978125 168.6796637 6.1328125 168.7646637 C9.81848542 169.6152036 11.02476307 170.63260328 13.3828125 173.5146637 C14.87638819 176.50181507 14.60784685 179.55354305 14.6328125 182.8271637 C14.65859375 184.14329651 14.684375 185.45942932 14.7109375 186.81544495 C14.36809565 190.6805787 13.74360483 192.48645111 11.3828125 195.5146637 C8.03596163 197.74589761 6.89526168 197.77826108 2.98095703 197.82106018 C1.32376144 197.84504128 1.32376144 197.84504128 -0.36691284 197.86950684 C-1.56067535 197.87486954 -2.75443787 197.88023224 -3.984375 197.88575745 C-5.21125031 197.89478592 -6.43812561 197.90381439 -7.70217896 197.91311646 C-10.29963738 197.92763564 -12.89713252 197.93650981 -15.49462891 197.94020081 C-19.46970211 197.95209641 -23.44322333 198.00126961 -27.41796875 198.05177307 C-29.94009658 198.06123698 -32.46223396 198.06847217 -34.984375 198.07325745 C-36.17408905 198.09278976 -37.3638031 198.11232208 -38.58956909 198.13244629 C-47.77589799 198.08219704 -47.77589799 198.08219704 -50.85595703 195.15553284 C-52.63168365 192.4929275 -53.3454897 190.68447141 -53.6171875 187.5146637 C-54.5246875 187.4527887 -55.4321875 187.3909137 -56.3671875 187.3271637 C-60.54036675 186.28386888 -61.3836554 185.15608463 -63.6171875 181.5146637 C-64.18348646 178.66325429 -64.17726723 175.91351086 -64.1171875 173.0146637 C-64.13265625 172.26829651 -64.148125 171.52192932 -64.1640625 170.75294495 C-64.1363253 166.83506486 -63.87999129 164.92394828 -61.7109375 161.5459137 C-56.68700518 156.67194951 -55.67185126 158.5146637 -46.6171875 158.5146637 C-46.6171875 144.3246637 -46.6171875 130.1346637 -46.6171875 115.5146637 C-48.2671875 115.1846637 -49.9171875 114.8546637 -51.6171875 114.5146637 C-54.21907006 111.19502043 -54.6171875 109.82150328 -54.6171875 105.5146637 C-55.5246875 105.5971637 -56.4321875 105.6796637 -57.3671875 105.7646637 C-60.6171875 105.5146637 -60.6171875 105.5146637 -62.78515625 104.1240387 C-65.60127304 100.11302373 -65.23778719 96.29934368 -65.1796875 91.5146637 C-65.20353516 90.61231995 -65.22738281 89.7099762 -65.25195312 88.7802887 C-65.23737435 82.21012109 -65.23737435 82.21012109 -62.33203125 78.9521637 C-58.57339242 76.96197796 -55.4904146 76.38920406 -51.26385498 76.39440918 C-50.40011261 76.39303452 -49.53637024 76.39165985 -48.64645386 76.39024353 C-47.70705963 76.39383881 -46.76766541 76.39743408 -45.79980469 76.40113831 C-44.30663223 76.40091927 -44.30663223 76.40091927 -42.78329468 76.4006958 C-39.49352844 76.40139238 -36.20381885 76.4091729 -32.9140625 76.41700745 C-30.63291454 76.41887253 -28.35176618 76.42029601 -26.07061768 76.42129517 C-20.0668019 76.42511321 -14.06301032 76.43493746 -8.0592041 76.44599915 C-1.9327019 76.45622855 4.19380422 76.46079607 10.3203125 76.46583557 C22.34115817 76.47656033 34.36197954 76.49415141 46.3828125 76.5146637 C46.7128125 63.9746637 47.0428125 51.4346637 47.3828125 38.5146637 C41.7728125 38.5146637 36.1628125 38.5146637 30.3828125 38.5146637 C30.4859375 40.3915387 30.5890625 42.2684137 30.6953125 44.2021637 C30.70913962 50.06486145 30.70913962 50.06486145 28.0703125 53.7021637 C23.95389738 56.47835063 20.87707515 56.6743075 16.0078125 56.7021637 C14.88632813 56.71634338 13.76484375 56.73052307 12.609375 56.74513245 C8.69368494 56.4654403 5.82415928 55.54419711 2.6328125 53.2646637 C0.87990102 50.81058762 0.71117462 48.46992274 0.3828125 45.5146637 C-0.7103125 45.4321637 -1.8034375 45.3496637 -2.9296875 45.2646637 C-6.6171875 44.5146637 -6.6171875 44.5146637 -8.32055664 42.9756012 C-10.14808866 39.50704109 -10.06568427 36.21874249 -10.05078125 32.3896637 C-10.0560231 31.60575256 -10.06126495 30.82184143 -10.06666565 30.01417542 C-10.0730769 28.36005333 -10.07176043 26.7058856 -10.06323242 25.05177307 C-10.05471542 22.52295249 -10.08350391 19.9963866 -10.11523438 17.4677887 C-10.11684639 15.85841437 -10.11626884 14.24903605 -10.11328125 12.6396637 C-10.12451523 11.885401 -10.13574921 11.13113831 -10.14732361 10.35401917 C-10.10348129 7.04732465 -9.97484523 4.9826888 -7.93690491 2.31587315 C-5.06548629 0.08627986 -3.6062363 0.01018323 0 0 Z M-3.6171875 6.5146637 C-3.7179687 8.87864838 -3.75691965 11.21277681 -3.75 13.5771637 C-3.75095673 14.28365051 -3.75191345 14.99013733 -3.75289917 15.71803284 C-3.75358083 17.21437163 -3.75172755 18.71071337 -3.74755859 20.20704651 C-3.74221007 22.50496527 -3.74750401 24.80268856 -3.75390625 27.1006012 C-3.75324547 28.55112246 -3.7519643 30.00164361 -3.75 31.4521637 C-3.75202423 32.14382629 -3.75404846 32.83548889 -3.75613403 33.54811096 C-4.01949483 36.81202007 -4.01949483 36.81202007 -2.6171875 39.5146637 C0.081503 39.58791805 2.74783806 39.60688721 5.4453125 39.5771637 C9.374375 39.5462262 9.374375 39.5462262 13.3828125 39.5146637 C13.7128125 34.2346637 14.0428125 28.9546637 14.3828125 23.5146637 C27.2528125 23.1846637 40.1228125 22.8546637 53.3828125 22.5146637 C53.3828125 42.3146637 53.3828125 62.1146637 53.3828125 82.5146637 C45.47699219 82.49146057 37.57117188 82.46825745 29.42578125 82.4443512 C24.42642902 82.43413583 19.42708961 82.42450816 14.42773438 82.41700745 C6.48719948 82.40503768 -1.45329747 82.39085593 -9.39379883 82.36378479 C-15.79338269 82.3421028 -22.19291727 82.33010487 -28.59253502 82.32490921 C-31.03784652 82.3212051 -33.48315522 82.31397221 -35.92844582 82.30320358 C-39.34534222 82.28875049 -42.76203318 82.28668317 -46.17895508 82.28761292 C-47.70564819 82.27682709 -47.70564819 82.27682709 -49.26318359 82.26582336 C-50.19286453 82.26857269 -51.12254547 82.27132202 -52.08039856 82.27415466 C-53.29301723 82.27138928 -53.29301723 82.27138928 -54.53013325 82.26856804 C-56.92255067 82.39074947 -56.92255067 82.39074947 -59.6171875 84.5146637 C-59.98276867 87.86969846 -59.98276867 87.86969846 -59.8046875 91.6396637 C-59.77761719 92.92099182 -59.75054687 94.20231995 -59.72265625 95.5224762 C-59.68785156 96.50989807 -59.65304688 97.49731995 -59.6171875 98.5146637 C-53.34826936 101.38124194 -53.34826936 101.38124194 -40.6171875 100.5146637 C-40.6171875 121.6346637 -40.6171875 142.7546637 -40.6171875 164.5146637 C-45.8971875 164.5146637 -51.1771875 164.5146637 -56.6171875 164.5146637 C-58.37278692 166.27026311 -57.74940669 168.55048811 -57.75390625 170.88575745 C-57.75003906 171.58829651 -57.74617188 172.29083557 -57.7421875 173.0146637 C-57.74605469 173.71720276 -57.74992187 174.41974182 -57.75390625 175.14356995 C-58.06109681 178.61895178 -58.06109681 178.61895178 -56.6171875 181.5146637 C-54.96527354 181.61334879 -53.30915533 181.64265206 -51.65429688 181.64405823 C-50.59650024 181.64721039 -49.53870361 181.65036255 -48.44885254 181.65361023 C-47.29784058 181.651586 -46.14682861 181.64956177 -44.9609375 181.6474762 C-43.78833374 181.64843292 -42.61572998 181.64938965 -41.40759277 181.65037537 C-38.92260688 181.6510574 -36.43761921 181.64920153 -33.95263672 181.64503479 C-30.13374863 181.63968689 -26.31497815 181.64497905 -22.49609375 181.65138245 C-20.08854141 181.65072167 -17.68098913 181.64944051 -15.2734375 181.6474762 C-13.54691956 181.65051254 -13.54691956 181.65051254 -11.78552246 181.65361023 C-10.19882751 181.64888199 -10.19882751 181.64888199 -8.58007812 181.64405823 C-7.64377563 181.64326263 -6.70747314 181.64246704 -5.74279785 181.64164734 C-3.6328569 181.75156013 -3.6328569 181.75156013 -2.6171875 180.5146637 C-2.51743718 178.00330265 -2.47836567 175.52562955 -2.4921875 173.0146637 C-2.48832031 172.31212463 -2.48445313 171.60958557 -2.48046875 170.88575745 C-2.17327819 167.41037561 -2.17327819 167.41037561 -3.6171875 164.5146637 C-4.95733971 164.35884066 -6.30477653 164.26422228 -7.65234375 164.19825745 C-8.38074463 164.16014954 -9.10914551 164.12204163 -9.85961914 164.08277893 C-10.7902417 164.0396759 -11.72086426 163.99657288 -12.6796875 163.9521637 C-15.6290625 163.8077887 -18.5784375 163.6634137 -21.6171875 163.5146637 C-21.6171875 154.9346637 -21.6171875 146.3546637 -21.6171875 137.5146637 C2.8028125 137.5146637 27.2228125 137.5146637 52.3828125 137.5146637 C52.3828125 165.8946637 52.3828125 194.2746637 52.3828125 223.5146637 C46.7728125 223.8446637 41.1628125 224.1746637 35.3828125 224.5146637 C34.36048371 227.58165007 34.2169076 229.80131248 34.1953125 233.0146637 C34.18113281 233.9737262 34.16695313 234.9327887 34.15234375 235.9209137 C34.19526139 238.75212509 34.19526139 238.75212509 36.3828125 241.5146637 C38.66659664 241.96645211 38.66659664 241.96645211 41.3515625 241.88697815 C42.38603516 241.89320694 43.42050781 241.89943573 44.48632812 241.90585327 C45.60716797 241.89664352 46.72800781 241.88743378 47.8828125 241.87794495 C49.02943359 241.87844345 50.17605469 241.87894196 51.35742188 241.87945557 C53.78517385 241.87711182 56.2129281 241.86736574 58.640625 241.85084534 C62.36740736 241.82726118 66.09347456 241.83028129 69.8203125 241.83692932 C72.17448345 241.83135266 74.52865138 241.82424286 76.8828125 241.81544495 C78.56407227 241.81681206 78.56407227 241.81681206 80.27929688 241.81820679 C81.31376953 241.80867477 82.34824219 241.79914276 83.4140625 241.7893219 C84.78401367 241.78241081 84.78401367 241.78241081 86.18164062 241.77536011 C88.5897216 241.72044389 88.5897216 241.72044389 90.3828125 239.5146637 C90.66487535 236.45533775 90.66487535 236.45533775 90.5703125 233.0146637 C90.56386719 231.8493512 90.55742187 230.6840387 90.55078125 229.4834137 C90.58339189 226.58584368 90.58339189 226.58584368 89.3828125 224.5146637 C83.4428125 224.5146637 77.5028125 224.5146637 71.3828125 224.5146637 C71.3828125 195.4746637 71.3828125 166.4346637 71.3828125 136.5146637 C81.20546875 136.58427307 81.20546875 136.58427307 91.2265625 136.6552887 C95.38282842 136.67573435 99.53903206 136.69499066 103.6953125 136.7099762 C110.28789192 136.73385874 116.88024845 136.7620683 123.47265625 136.81642151 C128.78947895 136.85998187 134.10606251 136.88382253 139.42304993 136.89417267 C141.44838727 136.90154572 143.47371199 136.91594358 145.49894714 136.93758392 C148.34268152 136.96675318 151.18543622 136.97061403 154.02929688 136.96876526 C155.27655548 136.99033691 155.27655548 136.99033691 156.54901123 137.01234436 C162.23864498 136.97249547 166.64773163 135.75839879 171.3828125 132.5146637 C176.58002917 125.80857767 175.63345713 117.86359398 175.6953125 109.7646637 C175.72431641 108.51427307 175.75332031 107.26388245 175.78320312 105.9756012 C175.83345319 98.66228362 175.45955687 93.67032653 171.3828125 87.5146637 C165.0920795 82.18121615 158.4610271 82.36597272 150.62353516 82.40113831 C149.76434479 82.40099228 148.90515442 82.40084625 148.01992798 82.4006958 C145.19555081 82.40138941 142.37124057 82.4091559 139.546875 82.41700745 C137.58246904 82.41887359 135.6180626 82.42029656 133.65365601 82.42129517 C128.49488022 82.4251049 123.33613279 82.43492198 118.17736816 82.44599915 C111.98151739 82.45804962 105.78565712 82.46262286 99.58979797 82.46845245 C90.18744979 82.47813458 80.78516377 82.49730195 71.3828125 82.5146637 C71.3828125 62.7146637 71.3828125 42.9146637 71.3828125 22.5146637 C84.2528125 22.5146637 97.1228125 22.5146637 110.3828125 22.5146637 C110.3828125 27.7946637 110.3828125 33.0746637 110.3828125 38.5146637 C119.64110657 41.23317142 119.64110657 41.23317142 128.3828125 38.5146637 C128.40746642 33.97568665 128.42565039 29.43674827 128.43774414 24.89772034 C128.4427839 23.35246604 128.4496157 21.80721653 128.45825195 20.26197815 C128.47033326 18.04541341 128.47604423 15.82891151 128.48046875 13.61231995 C128.48821068 12.57012047 128.48821068 12.57012047 128.49610901 11.50686646 C128.49630527 9.8423704 128.44470379 8.17800871 128.3828125 6.5146637 C126.70315432 4.83500552 124.63848286 5.38858848 122.33398438 5.38768005 C121.24021484 5.38486023 120.14644531 5.38204041 119.01953125 5.37913513 C117.80910156 5.38115936 116.59867188 5.38318359 115.3515625 5.38526917 C113.45180664 5.38264069 113.45180664 5.38264069 111.51367188 5.37995911 C108.03029431 5.37538525 104.54694623 5.37717413 101.06356812 5.38033819 C97.42584145 5.38286204 93.78811738 5.38052419 90.15039062 5.37895203 C84.04035995 5.3771304 77.93034134 5.37953645 71.8203125 5.3842926 C64.74653405 5.38973521 57.67278441 5.38797255 50.59900665 5.3824662 C44.53617353 5.37793486 38.4733491 5.37728462 32.41051483 5.37990487 C28.78482083 5.38146753 25.1591404 5.38166171 21.53344727 5.37836838 C17.49363485 5.37495551 13.45387247 5.37967973 9.4140625 5.38526917 C8.20363281 5.38324493 6.99320312 5.3812207 5.74609375 5.37913513 C4.10543945 5.38336487 4.10543945 5.38336487 2.43164062 5.38768005 C0.99697449 5.38824559 0.99697449 5.38824559 -0.4666748 5.38882256 C-2.59861335 5.27455879 -2.59861335 5.27455879 -3.6171875 6.5146637 Z " fill="#383838" transform="translate(64.6171875,-0.5146636962890625)"/>
<path d="M0 0 C28.38 0 56.76 0 86 0 C86 6.27 86 12.54 86 19 C57.62 19 29.24 19 0 19 C0 12.73 0 6.46 0 0 Z " fill="#333333" transform="translate(136,100)"/>
<path d="M0 0 C0.67661682 -0.00175232 1.35323364 -0.00350464 2.050354 -0.00531006 C4.29287258 -0.00972041 6.53531261 -0.0067928 8.77783203 -0.00341797 C10.3348085 -0.0040914 11.89178487 -0.00506176 13.44876099 -0.00631714 C16.7155253 -0.00779313 19.9822623 -0.00564329 23.24902344 -0.00097656 C27.43441896 0.00471122 31.61975022 0.00144714 35.80514336 -0.00454903 C39.02219119 -0.00816535 42.23922383 -0.00701095 45.45627213 -0.00442123 C46.99922824 -0.00375444 48.54218573 -0.00457174 50.08514023 -0.00690079 C52.24429718 -0.00944382 54.40335073 -0.005563 56.5625 0 C57.79112762 0.00079559 59.01975525 0.00159119 60.28561401 0.00241089 C63.41064453 0.12939453 63.41064453 0.12939453 67.41064453 1.12939453 C67.41064453 7.39939453 67.41064453 13.66939453 67.41064453 20.12939453 C42.33064453 20.12939453 17.25064453 20.12939453 -8.58935547 20.12939453 C-8.58935547 13.85939453 -8.58935547 7.58939453 -8.58935547 1.12939453 C-5.70688227 -0.31184207 -3.22091151 0.00208839 0 0 Z " fill="#383838" transform="translate(50.58935546875,98.87060546875)"/>
</svg>
